<?xml version="1.0" encoding="utf-8"?>
<!-- Generator: Adobe Illustrator 22.0.0, SVG Export Plug-In . SVG Version: 6.00 Build 0)  -->
<svg version="1.1" xmlns="http://www.w3.org/2000/svg" xmlns:xlink="http://www.w3.org/1999/xlink" x="0px" y="0px"
	 viewBox="0 0 750 500" style="enable-background:new 0 0 750 500;" xml:space="preserve">
<style type="text/css">
	.st0{display:none;}
	.st1{display:inline;fill:#FFC400;}
	.st2{display:none;fill:#FFFFFF;}
	.st3{opacity:0.17;fill:#0BA9B9;}
	.st4{opacity:0.25;fill:#117BD3;}
	.st5{fill:#0BA9B9;}
	.st6{opacity:0.41;fill:#0BA9B9;}
	.st7{fill:#97FFFF;}
	.st8{fill:#EAC3B2;}
	.st9{opacity:0.46;fill:#EAC3B2;}
	.st10{opacity:0.6;fill:#0BA9B9;}
	.st11{fill:#032D86;}
	.st12{fill:#DB3537;}
	.st13{fill:none;stroke:#1E1724;stroke-width:2.8937;stroke-miterlimit:10;}
	.st14{fill:#F99900;}
	.st15{fill:#F77B00;}
	.st16{opacity:0.4;}
	.st17{opacity:0.37;fill:#F77B00;}
	.st18{fill:#FFC400;}
	.st19{opacity:0.75;fill:#FFC400;}
	.st20{fill:#FFD1B0;}
	.st21{fill:#FFFFFF;}
	.st22{opacity:0.43;fill:#FFC400;}
	.st23{fill:#333333;}
	.st24{opacity:0.39;fill:#032D86;}
	.st25{fill:#513216;}
	.st26{opacity:0.24;fill:#EAC3B2;}
	.st27{opacity:0.28;}
</style>
<g id="BACKGROUND" class="st0">
	<rect class="st1" width="750" height="500"/>
</g>
<g id="OBJECTS">
	<rect x="51.2" y="43.9" class="st2" width="637.1" height="390.4"/>
	<path class="st3" d="M403.9,389c-63.1,6.7-128,4.3-188.8-15.1c-48.8-15.6-97.6-46-114.1-94.5c-11-32.2-3.9-68.8,15.1-96.5
		c24.7-36,60.2-38.6,97.4-54.8c42.9-18.8,71.7-59.4,115.3-76.9C364,37,403.3,31,441.2,33.4c74.9,4.7,149.5,44.8,171.5,120.7
		c1.8,6.3,3.2,12.7,4.3,19.1c9.8,58.8-14.4,119.5-57.7,159.4c-42.4,39.2-99.1,50.4-154.6,56.4C404.4,388.9,404.2,389,403.9,389z"/>
	<path class="st4" d="M585.8,436.6c0-18.4-80.4-33.3-179.6-33.3c-19.6,0-38.4,0.6-56,1.7c-17.6-1.1-36.5-1.7-56-1.7
		c-99.2,0-179.6,14.9-179.6,33.3c0,9.7,22.4,18.4,58.1,24.5c5.5,17.4,83.6,31.3,179.2,31.3c96.8,0,175.6-14.2,179.4-31.9
		C565,454.4,585.8,445.9,585.8,436.6z"/>
	<g>
		<g>
			<g>
				<g>
					<path class="st5" d="M453.1,347.4c0,0,57.4-20.4,77.6-59.8c23.9-46.6,41.2-131.5,123.5-127.2c0,0-20.9,38.4-25.6,80.6
						C623,290.6,599.9,382.3,453.1,347.4z"/>
					<path class="st6" d="M654,160.9c-11.7,3.7-23.9,10.7-34.3,23.6c-29.8,37.3-19.8,71-53.8,114.5c-26.9,34.3-80.9,45.9-111.8,48.7
						C600,381.8,623,290.5,628.6,241C633,201.5,651.7,165.3,654,160.9z"/>
				</g>
				<g>
					<path class="st7" d="M654,160.9c-2.9,1-5.7,2.2-8.4,3.6c-2.7,1.4-5.4,2.9-7.9,4.6c-2.5,1.7-4.9,3.6-7.2,5.6
						c-2.3,2-4.4,4.2-6.4,6.5c-7.8,9.3-14.1,19.8-18.7,31c-4.5,11.3-7.6,23.1-11.1,34.9c-3.6,11.8-8,23.5-14.1,34.4
						c-1.4,2.8-3.2,5.3-4.9,8c-1.6,2.7-3.5,5.1-5.4,7.6c-3.6,5.1-7.9,9.8-12.5,14c-9.3,8.4-20.1,14.9-31.4,19.9
						c-11.3,5.1-23.2,8.8-35.2,11.5c-6,1.3-12.1,2.4-18.2,3.3c-3,0.4-6.1,0.8-9.2,1.1c-3.1,0.3-6.1,0.5-9.2,0.7
						c12.2-1.6,24.3-3.8,36-7.1c11.8-3.2,23.4-7.3,34.3-12.5c5.5-2.6,10.8-5.6,15.9-8.8c5.1-3.3,9.9-7,14.3-11.1
						c4.4-4.1,8.4-8.5,11.9-13.5c1.8-2.5,3.6-4.9,5.2-7.5c1.6-2.6,3.3-5.1,4.7-7.8l2.2-4c0.4-0.7,0.7-1.3,1-2l1-2.1l1.9-4.1l1.7-4.2
						c2.4-5.6,4.2-11.4,6.1-17.2c3.7-11.6,6.9-23.6,11.9-35l2-4.2l1-2.1l1.1-2l2.2-4.1c0.4-0.7,0.8-1.3,1.2-2l1.3-2
						c0.9-1.3,1.7-2.6,2.6-3.9l2.8-3.7c1.9-2.5,3.8-4.9,6-7.1C631.1,170.8,642.1,164.1,654,160.9z"/>
				</g>
				<g>
					<polygon class="st7" points="624.1,214.2 597.3,232.5 596.2,230.8 					"/>
				</g>
				<g>
					<polygon class="st7" points="634.3,189.8 607.5,208.1 606.4,206.4 					"/>
				</g>
				<g>
					<polygon class="st7" points="622.5,238.9 589.2,261.4 588.1,259.7 					"/>
				</g>
				<g>
					<polygon class="st7" points="572,222.3 572.5,291.6 568.9,291.5 					"/>
				</g>
				<g>
					<polygon class="st7" points="589,201.1 593.2,246.5 590.9,246.6 					"/>
				</g>
				<g>
					<polygon class="st7" points="612.6,272.9 565.8,300.4 564.8,298.7 					"/>
				</g>
				<g>
					<polygon class="st7" points="584.1,311.4 532.2,327.3 531.6,325.3 					"/>
				</g>
			</g>
			<g>
				<g>
					<polygon class="st7" points="550.5,268.7 550.8,314.2 548.5,314.2 					"/>
				</g>
			</g>
			<g>
				<polygon class="st7" points="603.1,183.5 605.5,209.9 604.1,210 				"/>
			</g>
		</g>
		<path class="st8" d="M354.8,54c0,0-3.2,13.2,2.8,17c6,3.9-12.5,6.4-12.5,6.4l-9.7-7.3c0,0,3.5-1.7,3.5-15.2
			C338.9,45.2,354.8,54,354.8,54z"/>
		<path class="st9" d="M354.8,54c0,0-3.2,13.2,2.8,17c6,3.9-12.5,6.4-12.5,6.4l-9.7-7.3c0,0,3.5-1.7,3.5-15.2
			C338.9,45.2,354.8,54,354.8,54z"/>
		<g>
			<g>
				<g>
					<path class="st5" d="M389.1,404.2c0,0,66.3-54.8,74.2-116.9c9.2-73.4-8.9-194.5,102.5-228.6c0,0-9.2,61.1,4.9,119.4
						C587.2,246.6,600.9,379.5,389.1,404.2z"/>
					<path class="st10" d="M565.6,59.3c-13.7,10.6-26.6,25.8-34.1,47.9c-21.5,63.9,8.1,103.8-16.1,178
						c-19.1,58.6-85.2,100-124.9,118.7c210.1-25.2,196.5-157.5,180-225.9C557.4,123.4,564.6,66.3,565.6,59.3z"/>
				</g>
				<g>
					<path class="st7" d="M565.6,59.3c-13.4,11.1-23.9,25.3-30.1,41.3c-1.6,4-2.8,8.1-4,12.2c-0.6,2.1-1.1,4.2-1.6,6.2
						c-0.5,2.1-0.9,4.2-1.4,6.3c-1.6,8.4-2.6,16.9-2.9,25.5c-0.3,8.6,0,17.2,0.5,25.8l1.7,26c0.5,8.7,0.7,17.5,0.4,26.3
						c-0.3,8.8-1.1,17.6-2.5,26.3c-1.4,8.7-3.5,17.3-6,25.7c-0.7,2.1-1.3,4.2-2,6.3l-1.1,3.1l-0.6,1.6l-0.6,1.5
						c-0.8,2.1-1.7,4.1-2.6,6.1l-1.4,3l-1.6,2.9c-8.3,15.6-19.5,29.5-32.1,41.7c-6.3,6.1-12.9,11.9-19.8,17.2
						c-6.9,5.4-14,10.4-21.4,15.1c-14.7,9.4-30,17.7-46,24.5c15.4-8,30.3-16.9,44.4-26.9c14.1-9.9,27.5-20.9,39.5-33.2
						c6-6.1,11.6-12.6,16.8-19.4c5.1-6.8,9.7-14,13.6-21.6l1.4-2.8l1.3-2.9c0.9-1.9,1.7-3.9,2.5-5.8l0.6-1.5l0.5-1.5l1.1-3
						c0.7-2,1.3-4.1,1.9-6.1c2.4-8.2,4.3-16.6,5.7-25c1.4-8.4,2.2-17,2.5-25.5c0.3-8.6,0.1-17.2-0.3-25.8
						c-0.7-17.2-2.4-34.7-1.2-52.2c0.6-8.8,1.7-17.5,3.7-26.1c0.5-2.1,1.1-4.3,1.6-6.4c0.6-2.1,1.2-4.2,1.9-6.3
						c1.4-4.1,2.8-8.3,4.6-12.3C540,83.4,551.5,69.4,565.6,59.3z"/>
				</g>
				<g>
					<polygon class="st7" points="551.7,144.5 524.9,181.8 522.6,180 					"/>
				</g>
				<g>
					<polygon class="st7" points="553.5,107.2 526.7,144.5 524.5,142.7 					"/>
				</g>
				<g>
					<polygon class="st7" points="561.5,178.2 528.1,224.1 525.8,222.3 					"/>
				</g>
				<g>
					<polygon class="st7" points="486.5,180.5 520.6,272.3 515.8,273.9 					"/>
				</g>
				<g>
					<polygon class="st7" points="498.8,144.1 526.3,202.3 523.3,203.7 					"/>
				</g>
				<g>
					<polygon class="st7" points="564.8,228.1 516,287.2 513.8,285.3 					"/>
				</g>
				<g>
					<polygon class="st7" points="545.5,293 484.3,339.1 482.6,336.8 					"/>
				</g>
			</g>
			<g>
				<g>
					<polygon class="st7" points="480.4,252.4 502.8,312.8 499.7,313.8 					"/>
				</g>
			</g>
			<g>
				<polygon class="st7" points="508.9,114 524.9,147.9 523.2,148.6 				"/>
			</g>
		</g>
		<g>
			<g>
				<g>
					<path class="st5" d="M413.8,392.8c0,0,73.4-3.9,110.3-42.6c43.6-45.7,92.7-138.1,186.5-104.9c0,0-37.4,37.3-57.3,84.5
						C629.9,385.2,571.8,483.4,413.8,392.8z"/>
					<path class="st6" d="M710.2,245.6c-14.8,0.3-31.4,4.2-47.7,15.6c-47.2,33-47.2,75.4-101.5,114.1
						c-42.8,30.5-109.3,25.4-146,18.1c157.1,89.4,215-8.4,238.4-63.7C672,285.5,706,249.9,710.2,245.6z"/>
				</g>
				<g>
					<path class="st7" d="M710.2,245.6c-3.7,0.2-7.4,0.6-11,1.3c-3.6,0.6-7.2,1.5-10.7,2.6c-3.5,1.1-6.9,2.4-10.3,4
						c-3.3,1.6-6.5,3.3-9.6,5.3c-3.1,1.9-6,4.1-9,6.3c-1.5,1.1-2.9,2.3-4.3,3.5c-1.4,1.2-2.8,2.4-4.1,3.6
						c-5.4,5-10.4,10.3-14.9,16.1c-4.6,5.7-8.7,11.8-12.8,17.9l-12,18.7c-4.1,6.2-8.4,12.4-13,18.3c-4.6,5.9-9.7,11.5-15,16.8
						c-5.4,5.2-11.2,10.1-17.2,14.6c-1.5,1.1-3,2.2-4.6,3.3c-1.6,1-3.1,2.2-4.8,3.1c-1.6,1-3.2,2-4.9,2.8l-2.5,1.3l-2.6,1.2
						c-13.7,6.5-28.4,10.4-43.2,12.3c-14.8,2-29.8,2.3-44.7,1.3c-7.4-0.5-14.8-1.3-22.2-2.4c-3.7-0.5-7.3-1.2-11-1.8
						c-3.6-0.7-7.3-1.5-10.9-2.3c14.6,2.3,29.4,3.9,44.2,4.1c14.7,0.4,29.5-0.4,44-2.7c7.2-1.2,14.4-2.8,21.4-4.8
						c7-2.1,13.8-4.7,20.3-7.9l2.4-1.2l2.4-1.3c1.6-0.8,3.1-1.8,4.7-2.7c1.6-0.9,3-2,4.5-3c1.5-1,2.9-2.2,4.4-3.2
						c5.8-4.4,11.4-9.2,16.6-14.3c5.2-5.1,10.2-10.5,14.7-16.2c4.6-5.7,8.8-11.7,12.9-17.8c8.3-12.2,16-25,25.7-36.5
						c4.8-5.7,10.1-11.2,15.8-16c1.4-1.2,2.9-2.4,4.4-3.6c1.5-1.1,3-2.3,4.5-3.4c3.1-2.1,6.1-4.3,9.4-6.1c3.3-1.8,6.7-3.5,10.1-4.9
						c3.5-1.4,7-2.6,10.7-3.5c3.6-0.9,7.3-1.6,11-2.1C702.8,245.8,706.5,245.6,710.2,245.6z"/>
				</g>
				<g>
					<polygon class="st7" points="657.4,297.1 620.1,309.1 619.4,306.7 					"/>
				</g>
				<g>
					<polygon class="st7" points="677.6,272.4 640.3,284.4 639.6,282 					"/>
				</g>
				<g>
					<polygon class="st7" points="647,325.2 600.8,339.8 600.1,337.4 					"/>
				</g>
				<g>
					<polygon class="st7" points="594.3,288.6 571.1,369 567,367.7 					"/>
				</g>
				<g>
					<polygon class="st7" points="621.3,269.9 610.6,323.9 607.9,323.3 					"/>
				</g>
				<g>
					<polygon class="st7" points="623.9,361.1 560.4,377 559.9,374.6 					"/>
				</g>
				<g>
					<polygon class="st7" points="577.7,395.9 512.3,396.5 512.3,394 					"/>
				</g>
			</g>
			<g>
				<g>
					<polygon class="st7" points="553.6,335 538.3,387.8 535.7,386.9 					"/>
				</g>
			</g>
			<g>
				<polygon class="st7" points="643.5,254.4 637.3,285.8 635.7,285.4 				"/>
			</g>
		</g>
		<path class="st8" d="M397.6,138.6c0,0,1.5,2.4,6.3,3.7c4.7,1.4,13.8,5.6,10.8,6.3c-3,0.7-15.7-2.1-17.1-2.2
			c-1.4-0.1-5.5-7.8-5.5-7.8H397.6z"/>
		<path class="st11" d="M329.2,106.8l-10.6,7.2c0,0,3.2,3.5-3.6,13.6c-6.8,10.1-2,20.6-2,20.6l54.4-2.5l-8.3-22.4
			c0,0-3.3-9.9-5.2-9.4C352.1,114.5,329.2,106.8,329.2,106.8z"/>
		<path class="st12" d="M356.7,71.2l0.7-2.6c0,0,11.8,2.5,15.2,13.4c2.7,8.7,5.7,28.6,5.7,28.6l21.9,28.9l-7.4,7.9l-28-21.9
			L356.7,71.2z"/>
		<g>
			<path class="st13" d="M230.9,252.2c0,0,8.8,24.5-10.4,19.6c-27.9-7.2-33.3,18.3-17.9,35.2c12.4,13.6,20.3-2.3,16.2-10.8
				c-7.1-14.5-29.2-29.8-44.2-9.8c-15,19.9,0.7,58.7,20.3,54.2c19.5-4.6-29.3-40.7-41.6-18.6c-10.8,19.4,9.1,26,21.3,37
				c17.5,15.9-18,50.8-31.3,36.7c-21.3-22.5,42.3-37.7,42.8-5.8c0.4,28.4-39.4,17.9-41.5,40.9c-2.1,22.9,51.7,15.9,70.1,5"/>
			<g>
				<g>
					<path class="st14" d="M436.3,188.4c-6.8,0-12.3,5.5-12.3,12.3v15.1c0,8.2-6.7,14.9-14.9,14.9h-44.3h-44.3
						c-8.2,0-14.9-6.7-14.9-14.9v-15.1c0-6.8-5.5-12.3-12.3-12.3c-6.8,0-12.3,5.5-12.3,12.3v28.6c0,8.2,6.7,14.9,14.9,14.9
						c5.2,0,9.4,4.2,9.4,9.4v8.5v34.2h118.9V262l0.1,0.1v-8.5c0-5.2,4.2-9.4,9.4-9.4c8.2,0,14.9-6.7,14.9-14.9v-28.6
						C448.7,193.9,443.1,188.4,436.3,188.4z"/>
					<g>
						<g>
							<path class="st15" d="M526.3,220.2c-2.8-9.9-11.2-19.3-18.1-26.5c-45.1-46.7-117.6-53.7-178.8-46.9
								c-28.6,3.2-56.7,9.3-81.9,23.9c-17.7,10.3-42,28.4-47.9,49.5c-2.8,10.1-5.7,33,12.1,36.8c17.8,3.9,45,3.3,59.3-7.8
								c11.8-9.1-5-29.9,26.8-38.4c20.8-5.6,42.9-10,64.8-10.1c22.2-0.2,44.1,4.4,65.5,10.1c31.8,8.5,15,29.3,26.8,38.4
								c14.4,11.1,41.5,11.6,59.3,7.8C532,253.1,529.1,230.3,526.3,220.2z"/>
							<g class="st16">
								<path class="st15" d="M526.3,220.2c-2.8-9.9-11.2-19.3-18.1-26.5c-39.2-40.6-99-51.2-154.2-48.8c46.8,2,94,14.9,126.7,48.8
									c6.9,7.2,15.3,16.5,18.1,26.5c2.8,10.1,5.7,33-12.1,36.8c-2.2,0.5-4.5,0.9-7,1.2c11.9,1.6,24.6,0.9,34.5-1.2
									C532,253.1,529.1,230.3,526.3,220.2z"/>
								<path class="st15" d="M335,200.7c-21.9,0.2-44,4.5-64.8,10.1c-31.8,8.5-15,29.3-26.8,38.4c-6.4,4.9-15.3,7.7-24.8,9
									c17.4,2.4,39.8,0.7,52.4-9c11.8-9.1-5-29.9,26.8-38.4c16.9-4.5,34.6-8.1,52.5-9.5C345.2,201,340.1,200.7,335,200.7z"/>
							</g>
						</g>
						<path class="st17" d="M285.3,164c0,0-68.3,10.7-77,63.9c-1.4,8.5,11.6,15.6,17.4,1C238.1,197.1,250.6,179.8,285.3,164z"/>
					</g>
					<path class="st18" d="M432.9,188.4c-6.8,0-12.3,5.5-12.3,12.3v15.1c0,8.2-6.7,14.9-14.9,14.9h-44.3h-44.3
						c-8.2,0-14.9-6.7-14.9-14.9v-15.1c0-6.8-5.5-12.3-12.3-12.3c-6.8,0-12.3,5.5-12.3,12.3v28.6c0,8.2,6.7,14.9,14.9,14.9
						c5.2,0,9.4,4.2,9.4,9.4v8.5v34.2h118.9V262l0.1,0.1v-8.5c0-5.2,4.2-9.4,9.4-9.4c8.2,0,14.9-6.7,14.9-14.9v-28.6
						C445.2,193.9,439.7,188.4,432.9,188.4z"/>
					<path class="st18" d="M531.2,421.2c-7.6-53.7-24.5-103.4-62.1-119.9c-36.1-15.9-51.7-41.8-51.7-41.8H308.9
						c0,0-15.6,25.9-51.7,41.8c-37.6,16.6-54.5,66.3-62.1,119.9c-1.3,9.2,3.1,18.3,11.3,22.6c22.1,11.9,72.8,32.2,156.8,28.8
						c84,3.4,134.7-16.9,156.8-28.8C528.1,439.5,532.5,430.4,531.2,421.2z"/>
					<path class="st19" d="M531.2,421.2c-7.6-53.7-24.5-103.4-62.1-119.9c-36.1-15.9-51.7-41.8-51.7-41.8h-8.9
						c33.5,30.6,57.9,60.8,59.8,85c4.6,59.6-32.6,121.9-191.7,122.6c23.5,4.3,52.2,6.9,86.6,5.6c84,3.4,134.7-16.9,156.8-28.8
						C528.1,439.5,532.5,430.4,531.2,421.2z"/>
					<ellipse class="st18" cx="360.3" cy="294.8" rx="73.2" ry="52.9"/>
					<g>
						<path class="st20" d="M360.6,241.3c-41.5,0-75.1,22.1-75.1,49.4c0,27.3,33.6,49.4,75.1,49.4c41.5,0,75.1-22.1,75.1-49.4
							C435.7,263.4,402,241.3,360.6,241.3z M398,256.5c7,0,12.7,4.4,12.7,9.8c0,5.4-5.7,9.8-12.7,9.8c-7,0-12.7-4.4-12.7-9.8
							C385.2,260.9,390.9,256.5,398,256.5z M295.8,290.7c0-5.4,5.7-9.8,12.7-9.8c7,0,12.7,4.4,12.7,9.8s-5.7,9.8-12.7,9.8
							C301.5,300.5,295.8,296.1,295.8,290.7z M325.2,326.3c-7,0-12.7-4.4-12.7-9.8c0-5.4,5.7-9.8,12.7-9.8c7,0,12.7,4.4,12.7,9.8
							C337.9,321.9,332.2,326.3,325.2,326.3z M325.2,276.1c-7,0-12.7-4.4-12.7-9.8c0-5.4,5.7-9.8,12.7-9.8c7,0,12.7,4.4,12.7,9.8
							C337.9,271.7,332.2,276.1,325.2,276.1z M363.2,334.8c-7,0-12.7-4.4-12.7-9.8c0-5.4,5.7-9.8,12.7-9.8c7,0,12.7,4.4,12.7,9.8
							C375.9,330.4,370.2,334.8,363.2,334.8z M363.2,266.3c-7,0-12.7-4.4-12.7-9.8c0-5.4,5.7-9.8,12.7-9.8c7,0,12.7,4.4,12.7,9.8
							C375.9,261.9,370.2,266.3,363.2,266.3z M398,326.3c-7,0-12.7-4.4-12.7-9.8c0-5.4,5.7-9.8,12.7-9.8c7,0,12.7,4.4,12.7,9.8
							C410.7,321.9,405,326.3,398,326.3z M414.3,300.5c-7,0-12.7-4.4-12.7-9.8s5.7-9.8,12.7-9.8c7,0,12.7,4.4,12.7,9.8
							S421.3,300.5,414.3,300.5z"/>
						<path class="st21" d="M360.6,237c-41.5,0-75.1,22.1-75.1,49.4c0,27.3,33.6,49.4,75.1,49.4c41.5,0,75.1-22.1,75.1-49.4
							C435.7,259.2,402,237,360.6,237z M398,252.2c7,0,12.7,4.4,12.7,9.8c0,5.4-5.7,9.8-12.7,9.8c-7,0-12.7-4.4-12.7-9.8
							C385.2,256.6,390.9,252.2,398,252.2z M295.8,286.4c0-5.4,5.7-9.8,12.7-9.8c7,0,12.7,4.4,12.7,9.8s-5.7,9.8-12.7,9.8
							C301.5,296.3,295.8,291.9,295.8,286.4z M325.2,322c-7,0-12.7-4.4-12.7-9.8c0-5.4,5.7-9.8,12.7-9.8c7,0,12.7,4.4,12.7,9.8
							C337.9,317.6,332.2,322,325.2,322z M325.2,271.8c-7,0-12.7-4.4-12.7-9.8c0-5.4,5.7-9.8,12.7-9.8c7,0,12.7,4.4,12.7,9.8
							C337.9,267.4,332.2,271.8,325.2,271.8z M363.2,330.5c-7,0-12.7-4.4-12.7-9.8c0-5.4,5.7-9.8,12.7-9.8c7,0,12.7,4.4,12.7,9.8
							C375.9,326.1,370.2,330.5,363.2,330.5z M363.2,262c-7,0-12.7-4.4-12.7-9.8c0-5.4,5.7-9.8,12.7-9.8c7,0,12.7,4.4,12.7,9.8
							C375.9,257.6,370.2,262,363.2,262z M398,322c-7,0-12.7-4.4-12.7-9.8c0-5.4,5.7-9.8,12.7-9.8c7,0,12.7,4.4,12.7,9.8
							C410.7,317.6,405,322,398,322z M414.3,296.3c-7,0-12.7-4.4-12.7-9.8s5.7-9.8,12.7-9.8c7,0,12.7,4.4,12.7,9.8
							S421.3,296.3,414.3,296.3z"/>
						<ellipse class="st15" cx="361.4" cy="286.4" rx="28.6" ry="16.8"/>
					</g>
					<path class="st15" d="M530.6,417.4c-1.5,5.7-5.2,13.3-10.7,16.2c-22.1,11.9-74.7,34.5-156.8,33.1
						c-82.8,0.2-134.7-23.8-156.8-35.6c-5.4-2.9-9.1-7.9-10.7-13.7c-0.2,1.3-0.4,2.5-0.6,3.8c-1.3,9.2,3.1,18.3,11.3,22.6
						c22.1,11.9,78,31.7,156.8,31.3c82.1,0.3,134.7-19.5,156.8-31.3c8.2-4.4,12.6-13.5,11.3-22.6C531,419.9,530.8,418.7,530.6,417.4
						z"/>
				</g>
				<path class="st22" d="M254.6,327.8c12.3,10,42.3,28.8,98.7,34.6c0,0-63.2,11.2-113.3-9.7c-5.2-2.2-8.5-7.5-8.2-13.2
					c0.1-1.6,0.3-3.4,0.8-5.1C235,324.9,246.9,321.6,254.6,327.8z"/>
			</g>
		</g>
		<path class="st8" d="M288.7,77.4c0,0-2.4-4.8-1.4-8.6c1.7-7.1-1.1-13.8-2.1-10.3c-0.9,3.6-2.1,6.2-4.3,1.1c-2.3-5.1-8-6.4-8.6,0
			c-0.6,6.4,5.1,9.9,7.1,13.6c1.9,3.7,3.6,4.5,3.6,4.5L288.7,77.4z"/>
		<polygon class="st12" points="364,92.4 366.8,127.1 382.5,137.8 372.4,122.1 		"/>
		<path class="st12" d="M337.9,79.8l-0.2-12.7c0,0-10-2.8-21.3,10.4c-11.3,13.2-17.1,12.9-17.1,12.9l-11.2-20.7l-11,3.4
			c0,0,3.9,31.3,14.4,36.6c7.7,3.9,36.3-11.5,36.3-11.5L337.9,79.8z"/>
		<path class="st12" d="M324.4,78.5l-3.5,23.3c0,0-17.2,8.7-23.3,7.6C297.7,109.4,316.5,104.8,324.4,78.5z"/>
		<g>
			<path class="st23" d="M313.4,222.4c0,0-18.5,18.7-10.7,18.4c7.8-0.3,19-7.9,20.7-13c1.7-5-1.7-9.1-1.7-9.1L313.4,222.4z"/>
			<path class="st11" d="M323,121.6c0,0-36.7,23.6-34.1,42.3c2,13.8,21,61.3,21,61.3l14.5-2.5c0,0,0.6-41.2-5.1-55.6
				c-2.7-7,3.3-10.4,3.3-10.4s14.8-7.8,25-15.8C353.6,136.1,323,121.6,323,121.6z"/>
		</g>
		<g>
			<path class="st23" d="M370.9,222.4c0,0,18.5,18.7,10.7,18.4c-7.8-0.3-19-7.9-20.7-13c-1.7-5,1.7-9.1,1.7-9.1L370.9,222.4z"/>
			<path class="st11" d="M361.2,121.6c0,0,36.7,23.6,34.1,42.3c-2,13.8-21,61.3-21,61.3l-14.5-2.5c0,0-0.6-41.2,5.1-55.6
				c2.7-7-3.3-10.4-3.3-10.4s-14.8-7.8-25-15.8C330.7,136.1,361.2,121.6,361.2,121.6z"/>
			<path class="st24" d="M365.6,154.6c-8.9-7.2-12.7-16-12.7-16s-3.1,1.6-10.7,1.7c-7.3,0.1-10.4-1.7-10.4-1.7
				c-2.3,5.1-6.2,10.9-13.2,16c-5.2,3.8,0,9.4,0,9.4c-0.7-3.1,1.2-5.8,4.1-7.4c8.5-4.5,18.3-11,18.3-11l2.1-0.2
				c0,0,10,6.7,18.5,11.2c2.9,1.5,4.8,4.3,4.1,7.4C365.6,164,370.6,158.6,365.6,154.6z"/>
		</g>
		<path class="st12" d="M337.4,67.3c0,0,4,5,16.7,1.1c1.9-0.6,8.1,1.4,10.6,6.2c1.6,3,1.1,10,1,17.8c-0.2,9.9,1.8,34.1,1.8,34.1
			s-10,5.3-29.6,5c-14-0.3-12.8-0.8-22.2-4.6c0,0,5.3-18.7,7.5-47.3C323.5,75.9,329.2,67.3,337.4,67.3z"/>
		<ellipse class="st8" cx="345.8" cy="43.9" rx="14.6" ry="18.8"/>
		<path class="st25" d="M356.7,35.6c-6.2,2.4-8,2.3-13.2,2.4c-12,0.2-16.9-7.7-16.6-14.3c0,0,4.1,1.4,6,1.4l-1.7-7.2
			c0,0,5.2,5.2,7.7,5.2c0,0,0.8,1.1,6.9,0.2c6.1-0.9,13.2,4,13.2,6.8S359,34.7,356.7,35.6z"/>
		<path class="st25" d="M353.2,30.8c0,0,3.1,5.8,8.1,11.5v4.8c0,0,4.1-10.7-2.5-18.4C352.2,21.2,353.2,30.8,353.2,30.8z"/>
		<path class="st25" d="M338.2,30.8c0,0-3.1,5.8-8.1,11.5v4.8c0,0-4.1-10.7,2.5-18.4C339.2,21.2,338.2,30.8,338.2,30.8z"/>
		<path class="st26" d="M345.8,58.3c-6.6,0-13.4-7.3-14.4-16.6c-0.1,0.7-0.2,1.5-0.2,2.2c0,10.4,7.5,18.8,14.6,18.8
			c7.1,0,14.6-8.4,14.6-18.8c0-0.8-0.1-1.6-0.2-2.4C359.3,51,352.5,58.3,345.8,58.3z"/>
		<path class="st8" d="M357.9,40.3c0,0,4.5-2.9,5.1,2c0.6,4.9-2,9.2-5.1,7"/>
		<path class="st8" d="M333.3,40.3c0,0-4.5-2.9-5.1,2c-0.6,4.9,2,9.2,5.1,7"/>
		<g class="st27">
			<path class="st25" d="M358.5,28.7c-0.3-0.4-0.6-0.9-1.1-1.3C357.8,27.8,358.2,28.3,358.5,28.7z"/>
			<path class="st25" d="M358.6,28.9c0.1,0.1,0.1,0.2,0.2,0.3C358.7,29.1,358.7,29,358.6,28.9z"/>
			<path class="st25" d="M343,37c-9.8-1.1-14-7.1-14.6-12.8c-0.8-0.2-1.5-0.5-1.5-0.5c-0.3,6.6,4.6,14.5,16.6,14.3
				c3.3-0.1,5.3-0.1,7.8-0.7C348.4,37.6,346.4,37.4,343,37z"/>
			<path class="st25" d="M357.1,27.1c-0.2-0.2-0.5-0.4-0.7-0.6C356.6,26.7,356.9,26.9,357.1,27.1z"/>
		</g>
	</g>
</g>
<g id="DESIGNED_BY_FREEPIK">
</g>
</svg>
